<svg width="255" height="255" xmlns:xlink="http://www.w3.org/1999/xlink" xmlns="http://www.w3.org/2000/svg"><g><circle cx="127.5" cy="127.5" r="127.5" fill="#e9f0c1"></circle></g><g transform="translate(30,87.35)" fill-rule="evenodd"><path d="M 124.8 64.9 L 127 64.9 A 18.221 18.221 0 0 0 126.947 65.119 Q 126.889 65.364 126.818 65.688 A 62.908 62.908 0 0 0 126.75 66 Q 126.6 66.7 125.6 68.5 Q 124.6 70.3 123.1 71.7 A 8.475 8.475 0 0 1 121.822 72.668 Q 120.504 73.495 118.55 74.2 A 18.086 18.086 0 0 1 114.85 75.089 A 24.05 24.05 0 0 1 111.6 75.3 A 27.71 27.71 0 0 1 105.778 74.722 Q 101.26 73.752 98 71.15 A 24.347 24.347 0 0 1 93.616 66.516 Q 91.934 64.232 90.477 61.347 A 48.45 48.45 0 0 1 89.2 58.6 L 75.3 21.7 L 65.2 40.1 A 191.016 191.016 0 0 1 59.179 50.61 Q 53.029 60.543 47.359 66.296 A 43.68 43.68 0 0 1 44.8 68.7 Q 35.3 76.9 22.4 76.9 A 23.769 23.769 0 0 1 12.992 75.082 A 22.527 22.527 0 0 1 5.3 69.6 A 20.563 20.563 0 0 1 0.047 56.689 A 26.734 26.734 0 0 1 0 55.1 A 24.616 24.616 0 0 1 0.148 52.448 A 27.5 27.5 0 0 1 0.2 52 L 2.1 52.3 Q 2 53.6 2 54.9 A 21.946 21.946 0 0 0 3.016 61.704 A 18.486 18.486 0 0 0 6.7 68.2 A 19.423 19.423 0 0 0 20.303 74.82 A 26.903 26.903 0 0 0 22.4 74.9 Q 34.6 74.9 43.8 66.9 A 51.671 51.671 0 0 0 49.611 60.839 Q 55.262 54.009 61.395 43.118 A 215.161 215.161 0 0 0 63.6 39.1 L 80.6 8.1 A 68.729 68.729 0 0 1 63.709 5.725 A 63.524 63.524 0 0 1 61.1 4.95 A 68.237 68.237 0 0 0 53.356 2.933 Q 48.575 2 44.3 2 A 18.226 18.226 0 0 0 37.536 3.22 A 16.738 16.738 0 0 0 31.65 7.2 A 17.631 17.631 0 0 0 26.825 17.336 A 24.367 24.367 0 0 0 26.6 20.7 L 24.7 20.7 A 24.177 24.177 0 0 1 25.66 13.73 A 19.192 19.192 0 0 1 30.3 5.8 A 18.752 18.752 0 0 1 42.946 0.06 A 25.301 25.301 0 0 1 44.7 0 Q 49.786 0 56.482 1.61 A 93.253 93.253 0 0 1 61.75 3.05 A 71.768 71.768 0 0 0 78.688 5.974 A 83.538 83.538 0 0 0 83.3 6.1 L 99.3 49.6 Q 107.3 36.9 112.35 27.9 A 495.312 495.312 0 0 1 114.75 23.669 Q 118.163 17.725 120.45 14.2 Q 123.432 9.604 125.793 7.112 A 23.225 23.225 0 0 1 125.9 7 A 20.117 20.117 0 0 1 130.616 3.374 A 16.032 16.032 0 0 1 138.4 1.4 L 138.4 3.4 Q 134.5 3.4 131.25 5.45 A 17.161 17.161 0 0 0 128.875 7.285 Q 127.733 8.325 126.555 9.69 A 42.455 42.455 0 0 0 124.45 12.35 A 120.145 120.145 0 0 0 118.091 21.947 A 111.009 111.009 0 0 0 118 22.1 Q 115.78 25.852 112.211 31.977 A 3966.122 3966.122 0 0 0 109.9 35.95 A 492.932 492.932 0 0 1 104.951 44.288 Q 102.562 48.219 100.343 51.677 A 299.78 299.78 0 0 1 100.2 51.9 Q 102.794 58.251 104.788 62.282 A 74.981 74.981 0 0 0 105.25 63.2 Q 107.4 67.4 109.75 69.8 Q 112.1 72.2 115.8 72.2 Q 120.834 72.2 123.424 67.954 A 14.609 14.609 0 0 0 124.8 64.9 Z" id="0" vector-effect="non-scaling-stroke" fill="#05ad5c"></path>
<path d="M 188.1 44.4 L 190.2 44.9 Q 189.588 47.273 188.77 50.878 A 439.513 439.513 0 0 0 188.25 53.2 Q 187.1 58.4 186.55 60.65 A 75.131 75.131 0 0 1 186.244 61.856 Q 185.809 63.516 185.166 65.716 A 233.047 233.047 0 0 1 184.95 66.45 A 44.914 44.914 0 0 1 184.363 68.297 Q 183.619 70.464 182.9 71.65 Q 181.9 73.3 180.2 75.3 A 12.325 12.325 0 0 1 177.225 77.881 Q 174.919 79.344 171.6 80.3 L 171.2 78.2 A 14.168 14.168 0 0 0 175.444 76.583 A 12.057 12.057 0 0 0 179.1 73.25 Q 181.116 70.478 182.717 66.074 A 54.959 54.959 0 0 0 183.9 62.4 A 27.834 27.834 0 0 1 170.112 69.057 A 39.218 39.218 0 0 1 162.85 69.7 A 36.608 36.608 0 0 1 154.998 68.909 Q 147.62 67.288 142.95 62.35 Q 136 55 136 41.6 A 45.806 45.806 0 0 1 138.239 26.988 A 38.523 38.523 0 0 1 147.7 11.8 Q 159.4 0.1 178.4 0.1 Q 186.238 0.1 190.189 2.599 A 9.703 9.703 0 0 1 191.1 3.25 Q 195 6.4 195 13.1 Q 195 17.6 190.6 24.2 Q 186.6 30.6 186.6 34.2 L 184.4 34.2 A 11.49 11.49 0 0 1 184.639 31.923 A 15.541 15.541 0 0 1 185.2 29.9 Q 186 27.6 186.6 26.6 A 134.717 134.717 0 0 1 186.949 26.022 Q 187.438 25.217 188.263 23.873 A 1199.64 1199.64 0 0 1 188.8 23 A 38.062 38.062 0 0 0 190.597 20.014 Q 192.248 16.933 192.603 14.551 A 8.499 8.499 0 0 0 192.7 13.3 A 14.643 14.643 0 0 0 192.248 9.517 Q 191.072 5.123 186.839 3.462 A 11.912 11.912 0 0 0 186.1 3.2 Q 183 2.2 179.6 2.2 A 64.531 64.531 0 0 0 175.194 2.356 A 76.877 76.877 0 0 0 172.4 2.6 Q 168.9 3.7 165.75 5.45 Q 163.161 6.888 160.404 9.542 A 41.879 41.879 0 0 0 159.2 10.75 A 34.058 34.058 0 0 0 154.016 17.843 A 38.63 38.63 0 0 0 153.4 19 Q 151.586 22.553 150.229 27.619 A 74.63 74.63 0 0 0 149.4 31.05 A 68.39 68.39 0 0 0 148.112 39.776 A 89.679 89.679 0 0 0 147.8 47.4 A 35.693 35.693 0 0 0 148.445 54.456 Q 150.301 63.638 157.5 67.2 A 31.632 31.632 0 0 0 159.146 67.358 Q 161.055 67.495 163.628 67.5 A 100.152 100.152 0 0 0 163.8 67.5 A 29.808 29.808 0 0 0 168.851 67.051 A 37.142 37.142 0 0 0 172.05 66.35 A 32.165 32.165 0 0 0 175.08 65.396 Q 176.538 64.852 177.744 64.208 A 16.174 16.174 0 0 0 179.1 63.4 A 39.774 39.774 0 0 0 181.289 61.92 Q 182.392 61.116 183.269 60.336 A 16.51 16.51 0 0 0 184.8 58.8 Q 185.378 56.682 186.372 52.109 A 395.323 395.323 0 0 0 186.45 51.75 Q 187.254 48.037 187.794 45.701 A 162.246 162.246 0 0 1 188.1 44.4 Z" id="1" vector-effect="non-scaling-stroke" fill="#05ad5c"></path>
</g><g opacity="0.9" class="chr" transform="translate(127.5,127.5)"><path class="band-path" d="M74.35251111683414,-102.33745204284233A1,1,0,0,0,74.1248656174984,-103.73887553462204A127.5,127.5,0,0,0,33.79511170532797,-122.93958038331026A1,1,0,0,0,32.56375479756195,-122.23277741049763L29.79629821972412,-111.84472769156919A1,1,0,0,0,30.49682786474901,-110.62326152391216A114.75,114.75,0,0,1,66.64381291319032,-93.41394275155977A1,1,0,0,0,68.03360387630767,-93.64022235984734Z" style="fill: rgb(232, 246, 227);"></path><path class="band-path" d="M32.56375479756198,-122.23277741049763A1,1,0,0,0,31.84723986287995,-123.45850846789051A127.5,127.5,0,0,0,-3.511348224586378,-127.45163958790681A1,1,0,0,0,-4.483179999518952,-126.41657761975648L-4.102173384758772,-115.6729643154414A1,1,0,0,0,-3.075995562206726,-114.70876492797439A114.75,114.75,0,0,1,28.58092972857012,-111.13367156649932A1,1,0,0,0,29.796298219724157,-111.84472769156919Z" style="fill: rgb(34, 139, 69);"></path><path class="band-path" d="M-4.48317999951895,-126.41657761975647A1,1,0,0,0,-5.525892090649452,-127.38019672069319A127.5,127.5,0,0,0,-29.012456480904785,-124.15525509999004A1,1,0,0,0,-29.75684527910257,-122.94624906452229L-27.227936137165404,-112.4975643901255A1,1,0,0,0,-26.0291649789522,-111.7588702094759A114.75,114.75,0,0,1,-5.057471321613045,-114.63849477305196A1,1,0,0,0,-4.10217338475877,-115.67296431544139Z" style="fill: rgb(232, 246, 227);"></path><path class="band-path" d="M-29.75684527910257,-122.9462490645223A1,1,0,0,0,-30.97169803428224,-123.6810572435134A127.5,127.5,0,0,0,-77.6917028995916,-101.09524865472952A1,1,0,0,0,-77.87041837617345,-99.6867490789007L-71.25253899175247,-91.21479149364313A1,1,0,0,0,-69.85571244713776,-91.03703608149158A114.75,114.75,0,0,1,-27.956246195816377,-111.29245616230644A1,1,0,0,0,-27.227936137165408,-112.49756439012553Z" style="fill: rgb(34, 139, 69);"></path><path class="band-path" d="M-77.8704183761735,-99.68674907890066A1,1,0,0,0,-79.2802867124577,-99.85432458732323A127.5,127.5,0,0,0,-99.91709573424646,-79.20116148159337A1,1,0,0,0,-99.7484034405687,-77.79142633386755L-91.27120611039193,-71.18026015093196A1,1,0,0,0,-89.87302769508572,-71.34704894330494A114.75,114.75,0,0,1,-71.41822015422031,-89.81648139402546A1,1,0,0,0,-71.25253899175253,-91.21479149364309Z" style="fill: rgb(232, 246, 227);"></path><path class="band-path" d="M-99.74840344056871,-77.79142633386755A1,1,0,0,0,-101.15676100365886,-77.6115951597997A127.5,127.5,0,0,0,-105.36645074890461,-71.79248607325603A1,1,0,0,0,-105.09657510749294,-70.3985788256773L-96.16485915834707,-64.41569966285603A1,1,0,0,0,-94.78234136154042,-64.68284367608169A114.75,114.75,0,0,1,-91.09234424733285,-69.78357485487116A1,1,0,0,0,-91.27120611039194,-71.18026015093196Z" style="fill: rgb(198, 232, 191);"></path><path class="band-path" d="M-105.09657510749291,-70.39857882567728A1,1,0,0,0,-106.48830539663446,-70.11769258720018A127.5,127.5,0,0,0,-119.64710271422116,-44.05474789500686A1,1,0,0,0,-119.04679245338237,-42.76810969123259L-108.92950619773615,-39.1334279039974A1,1,0,0,0,-107.65325309873585,-39.728322356469064A114.75,114.75,0,0,1,-95.8857811165646,-63.0355414005961A1,1,0,0,0,-96.1648591583471,-64.41569966285599Z" style="fill: rgb(232, 246, 227);"></path><path class="band-path" d="M-119.04679245338237,-42.7681096912326A1,1,0,0,0,-120.32864491907927,-42.15764713475053A127.5,127.5,0,0,0,-125.44818646124,-22.781626666811206A1,1,0,0,0,-124.63517503457528,-21.61765815486924L-114.04295564453038,-19.780464298384928A1,1,0,0,0,-112.88828383243646,-20.586351628379123A114.75,114.75,0,0,1,-108.32360800174315,-37.8623619110679A1,1,0,0,0,-108.92950619773613,-39.13342790399741Z" style="fill: grey;"></path><path class="band-path" d="M-124.63517503457525,-21.617658154869204A1,1,0,0,0,-125.7926802092477,-20.795470799525937A127.5,127.5,0,0,0,-127.48803091804662,-1.7469895933259085A1,1,0,0,0,-126.49392184798849,-0.7333045172258571L-115.74373538297652,-0.6709840501184573A1,1,0,0,0,-114.73804253269535,-1.6565312449207852A114.75,114.75,0,0,1,-113.22712282345745,-18.63279788764105A1,1,0,0,0,-114.04295564453037,-19.7804642983849Z" style="fill: grey;"></path><path class="band-path" d="M-126.49392184798849,-0.7333045172258565A1,1,0,0,0,-127.49971668066534,0.2687868115662788A127.5,127.5,0,0,0,-124.70004756961049,26.57344795349076A1,1,0,0,0,-123.5058637552287,27.341390200113835L-113.0096197816517,25.017760427474695A1,1,0,0,0,-112.24757166161719,23.833697910104394A114.75,114.75,0,0,1,-114.74953647718033,0.3261568215757759A1,1,0,0,0,-115.74373538297652,-0.6709840501184567Z" style="fill: rgb(232, 246, 227);"></path><path class="band-path" d="M-123.50586375522872,27.34139020011383A1,1,0,0,0,-124.26434181839998,28.541607390612203A127.5,127.5,0,0,0,-118.59763505034901,46.80652690025428A1,1,0,0,0,-117.2930057943387,47.366663295288475L-107.3247664915352,43.34116977583138A1,1,0,0,0,-106.76877140808236,42.04749638217065A114.75,114.75,0,0,1,-111.81901788386068,25.76955062644372A1,1,0,0,0,-113.00961978165171,25.01776042747469Z" style="fill: rgb(198, 232, 191);"></path><path class="band-path" d="M-117.29300579433868,47.36666329528853A1,1,0,0,0,-117.84281141254718,48.67567974242211A127.5,127.5,0,0,0,-104.74008014720324,72.70327097701616A1,1,0,0,0,-103.34189140795417,72.9500067184823L-94.55929864735035,66.75029242873177A1,1,0,0,0,-94.31408730436115,65.36371650958458A114.75,114.75,0,0,1,-106.0263379639032,43.885967665806085A1,1,0,0,0,-107.32476649153519,43.34116977583144Z" style="fill: rgb(232, 246, 227);"></path><path class="band-path" d="M-103.34189140795417,72.9500067184823A1,1,0,0,0,-103.57756656448299,74.35010224996398A127.5,127.5,0,0,0,-78.99682667633007,100.07872588652327A1,1,0,0,0,-77.58743917564895,99.90715330828407L-70.99360900345033,91.416464494451A1,1,0,0,0,-71.16325446946338,90.0186298124694A114.75,114.75,0,0,1,-93.17065601803111,66.98351556293325A1,1,0,0,0,-94.55929864735035,66.75029242873177Z" style="fill: rgb(34, 139, 69);"></path><path class="band-path" d="M-77.58743917564894,99.90715330828407A1,1,0,0,0,-77.40473055521524,101.3151404661442A127.5,127.5,0,0,0,-76.07611649399023,102.31654069207397A1,1,0,0,0,-74.67226667109584,102.10437106314671L-68.32618475070082,93.42694995242593A1,1,0,0,0,-68.53609470821134,92.03459252991281A114.75,114.75,0,0,1,-69.59729210757202,91.23474903397988A1,1,0,0,0,-70.99360900345032,91.416464494451Z" style="fill: rgb(232, 246, 227);"></path><path class="band-path" d="M-74.67226667109583,102.10437106314671A1,1,0,0,0,-74.44900604458236,103.50649979094908A127.5,127.5,0,0,0,-41.20845614444499,120.65700618775254A1,1,0,0,0,-39.936397706651974,120.0263893409117L-36.54237121260971,109.8258512653548A1,1,0,0,0,-37.167327791392744,108.56404674129998A114.75,114.75,0,0,1,-66.93569276726025,93.20501882284529A1,1,0,0,0,-68.3261847507008,93.42694995242591Z" style="fill: rgb(198, 232, 191);"></path><path class="band-path" d="M-39.93639770665197,120.02638934091169A1,1,0,0,0,-39.295744766197345,121.2934229184331A127.5,127.5,0,0,0,-10.67295572900038,127.05250102224198A1,1,0,0,0,-9.592125469797576,126.13184026633266L-8.776931064488258,115.41242559226117A1,1,0,0,0,-9.689610814146407,114.34016766766777A114.75,114.75,0,0,1,-35.28601297140578,109.19001689065618A1,1,0,0,0,-36.5423712126097,109.82585126535479Z" style="fill: rgb(232, 246, 227);"></path><path class="band-path" d="M-9.592125469797576,126.13184026633267A1,1,0,0,0,-8.662949368220051,127.2053588031717A127.5,127.5,0,0,0,36.62567530562874,122.12620483911982A1,1,0,0,0,37.29396693336602,120.87352907222079L34.12450951836493,110.60099615342993A1,1,0,0,0,32.88240082224154,109.93775609937401A114.75,114.75,0,0,1,-7.712598078294685,114.49051633599477A1,1,0,0,0,-8.776931064488258,115.41242559226117Z" style="fill: rgb(34, 139, 69);"></path><path class="band-path" d="M37.29396693336601,120.87352907222078A1,1,0,0,0,38.55188649680866,121.53189724322246A127.5,127.5,0,0,0,48.75376004552078,117.81052958638197A1,1,0,0,0,49.292330109867436,116.49685056833019L45.10318226596709,106.59627315006352A1,1,0,0,0,43.80052584099331,106.0616633664232A114.75,114.75,0,0,1,34.77699385995932,109.35320387654104A1,1,0,0,0,34.124509518364924,110.60099615342992Z" style="fill: rgb(232, 246, 227);"></path><path class="band-path" d="M49.29233010986749,116.49685056833016A1,1,0,0,0,50.61022555144526,117.02501899009388A127.5,127.5,0,0,0,64.39561014952587,110.04297066814527A1,1,0,0,0,64.7496090977523,108.66801793392698L59.24681211613952,99.43278007817574A1,1,0,0,0,57.883319757092465,99.08119798376576A114.75,114.75,0,0,1,45.62651804703654,105.28904668057096A1,1,0,0,0,45.10318226596715,106.59627315006348Z" style="fill: rgb(115, 195, 120);"></path><path class="band-path" d="M64.74960909775233,108.66801793392696A1,1,0,0,0,66.12731728072583,109.01113662949405A127.5,127.5,0,0,0,97.59490590934564,82.04562353072815A1,1,0,0,0,97.46687965666807,80.63161520143684L89.18357943824951,73.7790733106715A1,1,0,0,0,87.78117786363256,73.90552965017777A114.75,114.75,0,0,1,59.58660145806108,98.06630117771442A1,1,0,0,0,59.246812116139544,99.43278007817574Z" style="fill: rgb(232, 246, 227);"></path></g></svg>