<svg width="161.2" height="161.2" xmlns:xlink="http://www.w3.org/1999/xlink" xmlns="http://www.w3.org/2000/svg"><g><circle cx="80.6" cy="80.6" r="80.6" fill="#7b1e1e"></circle></g><g transform="translate(30,49.8)" fill-rule="evenodd"><path d="M 48.3 31.1 L 48.3 32.9 A 10.363 10.363 0 0 0 48.259 33.407 Q 48.2 34.374 48.2 36.25 L 48.2 42.7 Q 48.2 50.6 47.6 55.9 A 5.462 5.462 0 0 1 47.274 57.256 Q 46.589 58.983 44.696 59.176 A 4.887 4.887 0 0 1 44.2 59.2 A 4.877 4.877 0 0 1 42.037 58.636 Q 39.623 57.439 36.7 53.7 A 13.735 13.735 0 0 1 36.245 53.078 Q 34.113 50.038 24.4 34.9 A 412.276 412.276 0 0 0 21.767 30.892 Q 13.05 17.8 11.3 17.8 A 0.489 0.489 0 0 0 10.972 18.194 Q 10.059 20.54 9.924 36.866 A 740.455 740.455 0 0 0 9.9 43 A 44.702 44.702 0 0 0 9.939 44.828 A 54.711 54.711 0 0 0 10 46 Q 10.1 47.6 10.3 49.5 L 10.6 53.6 A 5.65 5.65 0 0 1 8.842 57.772 A 7.253 7.253 0 0 1 8.6 58 Q 6.6 59.8 3.8 59.8 Q 0.086 59.8 0.002 57.222 A 3.709 3.709 0 0 1 0 57.1 A 7.407 7.407 0 0 1 0.155 55.652 Q 0.413 54.363 1.1 52.8 A 15.348 15.348 0 0 0 1.762 50.267 Q 2.8 44.735 2.8 32 L 2.8 30.1 L 3 26.4 L 3 17.2 A 55.503 55.503 0 0 0 2.884 13.493 Q 2.767 11.757 2.534 10.267 A 24.758 24.758 0 0 0 2.1 8.1 Q 1.8 7.2 1.65 6.55 Q 1.5 5.9 1.3 5.5 Q 1.2 5 1.1 4.6 Q 1.1 2.5 4.2 2.5 Q 9.637 2.5 14.459 7.499 A 27.161 27.161 0 0 1 15.8 9 A 92.686 92.686 0 0 1 19.203 13.154 Q 22.78 17.759 27.326 24.484 A 389.332 389.332 0 0 1 30.2 28.8 A 642.776 642.776 0 0 0 32.298 31.941 Q 39.2 42.2 39.9 42.2 A 0.493 0.493 0 0 0 40.252 41.822 Q 41.229 39.569 41.375 23.891 A 637.34 637.34 0 0 0 41.4 18 A 172.332 172.332 0 0 0 41.386 15.734 Q 41.363 13.957 41.3 12.55 Q 41.2 10.3 41 9 A 23.767 23.767 0 0 1 40.789 7.789 A 19.875 19.875 0 0 1 40.7 7.1 A 1.89 1.89 0 0 1 40.6 6.51 A 1.801 1.801 0 0 1 40.6 6.5 Q 40.6 2.5 45.7 2.5 A 5.612 5.612 0 0 1 47.797 2.882 A 5.175 5.175 0 0 1 49.55 4.05 A 5.553 5.553 0 0 1 50.609 5.492 A 4.655 4.655 0 0 1 51.1 7.6 Q 51.1 9.5 50 12.5 Q 49.5 14 49.2 15.6 Q 48.9 17.2 48.7 18.9 Q 48.5 20.6 48.4 23.65 A 163.727 163.727 0 0 0 48.339 26.128 Q 48.3 28.35 48.3 31.1 Z" id="0" vector-effect="non-scaling-stroke" fill="#f3f3f7"></path>
<path d="M 81.5 61.6 L 81.2 61.6 A 30.471 30.471 0 0 1 78.719 61.494 A 38.057 38.057 0 0 1 76.9 61.3 A 58.997 58.997 0 0 1 72.517 60.564 A 54.75 54.75 0 0 1 72.45 60.55 A 50.174 50.174 0 0 1 70.142 60.012 A 39.771 39.771 0 0 1 68.5 59.55 A 20.745 20.745 0 0 1 67.453 59.202 Q 66.422 58.825 65.745 58.427 A 6.097 6.097 0 0 1 65.7 58.4 A 7.63 7.63 0 0 1 62.932 55.616 A 9.282 9.282 0 0 1 62.7 55.2 A 10.249 10.249 0 0 1 61.91 53.253 A 7.839 7.839 0 0 1 61.6 51.1 Q 61.6 49.2 62.5 48.15 Q 63.268 47.255 64.181 47.123 A 2.233 2.233 0 0 1 64.5 47.1 Q 65.388 47.1 68.419 49.535 A 55.19 55.19 0 0 1 68.5 49.6 Q 71.4 52.1 74.35 53.3 A 14.868 14.868 0 0 0 77.181 54.115 Q 78.574 54.38 80.188 54.463 A 29.551 29.551 0 0 0 81.7 54.5 A 14.309 14.309 0 0 0 84.702 54.203 Q 87.17 53.674 88.9 52.2 Q 91.6 49.9 91.6 45.6 A 9.863 9.863 0 0 0 91.467 43.935 Q 91.301 42.968 90.929 42.165 A 6.05 6.05 0 0 0 90.85 42 Q 90.145 40.591 88.602 39.358 A 12.118 12.118 0 0 0 88.4 39.2 A 22.678 22.678 0 0 0 86.991 38.211 Q 86.188 37.689 85.24 37.151 A 45.481 45.481 0 0 0 84.05 36.5 A 98.417 98.417 0 0 0 81.887 35.394 Q 80.912 34.91 79.815 34.386 A 198.467 198.467 0 0 0 77.5 33.3 A 97.202 97.202 0 0 1 73.25 31.118 A 83.486 83.486 0 0 1 71.7 30.25 A 22.992 22.992 0 0 1 67.742 27.401 A 20.911 20.911 0 0 1 66.95 26.65 Q 64.9 24.6 63.75 21.85 Q 62.674 19.277 62.605 15.786 A 24.452 24.452 0 0 1 62.6 15.3 Q 62.6 8.605 67.835 4.382 A 17.521 17.521 0 0 1 68 4.25 A 17.562 17.562 0 0 1 73.428 1.421 Q 75.924 0.6 78.967 0.253 A 41.906 41.906 0 0 1 83.7 0 Q 90 0 94.2 1.8 A 7.33 7.33 0 0 1 97.027 4.072 A 9.182 9.182 0 0 1 97.5 4.75 Q 98.425 6.208 98.692 7.489 A 4.95 4.95 0 0 1 98.8 8.5 A 9.32 9.32 0 0 1 98.693 9.981 Q 98.273 12.575 96.203 12.695 A 3.535 3.535 0 0 1 96 12.7 Q 95.404 12.7 92.055 10.526 A 122.46 122.46 0 0 1 90.8 9.7 A 20.347 20.347 0 0 0 86.954 7.71 A 14.649 14.649 0 0 0 81.7 6.7 A 15.764 15.764 0 0 0 78.625 6.983 Q 76.172 7.471 74.4 8.8 A 6.768 6.768 0 0 0 71.645 13.763 A 9.497 9.497 0 0 0 71.6 14.7 A 9.395 9.395 0 0 0 71.724 16.267 Q 71.882 17.198 72.239 17.976 A 5.957 5.957 0 0 0 72.25 18 A 6.516 6.516 0 0 0 73.091 19.333 Q 73.537 19.888 74.135 20.427 A 11.905 11.905 0 0 0 74.45 20.7 Q 75.576 21.645 77.283 22.642 A 36.614 36.614 0 0 0 78.65 23.4 A 83.076 83.076 0 0 0 80.827 24.507 Q 81.814 24.991 82.932 25.514 A 174.413 174.413 0 0 0 85.3 26.6 A 69.006 69.006 0 0 1 90.632 29.203 A 62.536 62.536 0 0 1 91.35 29.6 A 25.479 25.479 0 0 1 95.552 32.53 A 23.115 23.115 0 0 1 96.4 33.3 Q 98.6 35.4 99.9 38.25 A 13.856 13.856 0 0 1 100.914 41.575 Q 101.2 43.172 101.2 45 A 14.676 14.676 0 0 1 100.851 48.23 A 13.636 13.636 0 0 1 100.8 48.45 Q 100.4 50.1 99.7 51.7 Q 97.2 56.8 92.05 59.2 Q 86.9 61.6 81.5 61.6 Z" id="1" vector-effect="non-scaling-stroke" fill="#f3f3f7"></path>
</g><g opacity="0.9" class="chr" transform="translate(80.6,80.6)"><path class="band-path" d="M46.78401381837396,-64.39267078668342A1,1,0,0,0,46.55257216098392,-65.79679342640023A80.6,80.6,0,0,0,35.33851250134102,-72.43997193671849A1,1,0,0,0,33.99587330803163,-71.96833052130819L31.407319895440924,-66.48843400912251A1,1,0,0,0,31.87214265769296,-65.16301191939847A72.53999999999999,72.53999999999999,0,0,1,41.83598405013954,-59.260459317798656A1,1,0,0,0,43.2217309045936,-59.48960898855275Z" style="fill: rgb(109, 174, 213);"></path><path class="band-path" d="M33.99587330803165,-71.9683305213082A1,1,0,0,0,33.507401785778335,-73.30493861648354A80.6,80.6,0,0,0,18.395354167615633,-78.47274013979623A1,1,0,0,0,17.19072638815296,-77.7151138855735L15.881770061196251,-71.79763909574805A1,1,0,0,0,16.628929570445255,-70.60828776667205A72.53999999999999,72.53999999999999,0,0,1,30.0883410305117,-66.00563107820139A1,1,0,0,0,31.407319895440928,-66.4884340091225Z" style="fill: rgb(195, 219, 238);"></path><path class="band-path" d="M17.19072638815297,-77.71511388557349A1,1,0,0,0,16.41802640738761,-78.91012868375212A80.6,80.6,0,0,0,-2.4125375591974687,-80.56388559724178A1,1,0,0,0,-3.381702348987429,-79.52184661602655L-3.1242088268613366,-73.46680147662725A1,1,0,0,0,-2.0962144499031776,-72.5097061432469A72.53999999999999,72.53999999999999,0,0,1,14.702688603043361,-71.0343758179231A1,1,0,0,0,15.881770061196265,-71.79763909574805Z" style="fill: rgb(109, 174, 213);"></path><path class="band-path" d="M-3.3817023489874307,-79.52184661602655A1,1,0,0,0,-4.4358345344805965,-80.47784398194766A80.6,80.6,0,0,0,-6.338561471675266,-80.35037422731641A1,1,0,0,0,-7.2557555376247125,-79.26231141960363L-6.7032793418328795,-73.22702811165667A1,1,0,0,0,-5.629833024042377,-72.32120422200809A72.53999999999999,72.53999999999999,0,0,1,-4.067236958868155,-72.42588752318066A1,1,0,0,0,-3.124208826861339,-73.46680147662725Z" style="fill: grey;"></path><path class="band-path" d="M-7.255755537624718,-79.2623114196036A1,1,0,0,0,-8.355255019092375,-80.16576397419243A80.6,80.6,0,0,0,-10.249501643116108,-79.94565476664607A1,1,0,0,0,-11.112542357852362,-78.81415737254912L-10.266398204344716,-72.81299793244216A1,1,0,0,0,-9.15005440328247,-71.96060105652933A72.53999999999999,72.53999999999999,0,0,1,-7.594422713149831,-72.14136361099638A1,1,0,0,0,-6.703279341832887,-73.22702811165665Z" style="fill: grey;"></path><path class="band-path" d="M-11.112542357852362,-78.8141573725491A1,1,0,0,0,-12.254792679569839,-79.66291518881769A80.6,80.6,0,0,0,-22.114355302237033,-77.50687253119185A1,1,0,0,0,-22.79808461017519,-76.2588181006452L-21.062166277279808,-70.45223028200182A1,1,0,0,0,-19.830689393310163,-69.77675370914051A72.53999999999999,72.53999999999999,0,0,1,-11.103536179887666,-71.68516641748086A1,1,0,0,0,-10.266398204344718,-72.81299793244216Z" style="fill: rgb(227, 238, 249);"></path><path class="band-path" d="M-22.798084610175206,-76.25881810064521A1,1,0,0,0,-24.05463011434893,-76.92681437614493A80.6,80.6,0,0,0,-29.254701281318187,-75.10341172637125A1,1,0,0,0,-29.81891049058272,-73.79696861765133L-27.54840424970027,-68.17783381198831A1,1,0,0,0,-26.259236838183597,-67.62029340868155A72.53999999999999,72.53999999999999,0,0,1,-21.720834722922582,-69.21168209875758A1,1,0,0,0,-21.06216627727982,-70.45223028200184Z" style="fill: rgb(195, 219, 238);"></path><path class="band-path" d="M-29.818910490582734,-73.79696861765132A1,1,0,0,0,-31.132338556394576,-74.34472070032967A80.6,80.6,0,0,0,-36.13943782480236,-72.04374389013417A1,1,0,0,0,-36.57919722525362,-70.69032699284958L-33.79394135171532,-65.30774171502811A1,1,0,0,0,-32.45834735793272,-64.87300892352519A72.53999999999999,72.53999999999999,0,0,1,-28.088362951679283,-66.88120413610037A1,1,0,0,0,-27.548404249700283,-68.1778338119883Z" style="fill: rgb(227, 238, 249);"></path><path class="band-path" d="M-36.57919722525358,-70.69032699284958A1,1,0,0,0,-37.93803193287202,-71.11304896473207A80.6,80.6,0,0,0,-39.324115257197214,-70.3560513334757A1,1,0,0,0,-39.702928686000696,-68.98432759514543L-36.67982201041156,-63.7316425120562A1,1,0,0,0,-35.326128076942766,-63.35705387004226A72.53999999999999,72.53999999999999,0,0,1,-34.21047248578302,-63.96635969241553A1,1,0,0,0,-33.793941351715276,-65.30774171502813Z" style="fill: rgb(195, 219, 238);"></path><path class="band-path" d="M-39.702928686000675,-68.98432759514542A1,1,0,0,0,-41.0793031370655,-69.34587841950722A80.6,80.6,0,0,0,-48.381665264020384,-64.46374536342333A1,1,0,0,0,-48.5735906121704,-63.0536778867123L-44.875043656142864,-58.2525712467636A1,1,0,0,0,-43.483409074302195,-58.06242102493566A72.53999999999999,72.53999999999999,0,0,1,-37.03596843203885,-62.37298006589889A1,1,0,0,0,-36.67982201041155,-63.73164251205618Z" style="fill: rgb(227, 238, 249);"></path><path class="band-path" d="M-48.57359061217037,-63.053677886712315A1,1,0,0,0,-49.98595793550054,-63.22787367348652A80.6,80.6,0,0,0,-52.96543235812632,-60.75378980044574A1,1,0,0,0,-53.05374709959256,-59.33346373415657L-49.01406684602103,-54.815625976666375A1,1,0,0,0,-47.61225412757806,-54.72773389142771A72.53999999999999,72.53999999999999,0,0,1,-45.046252791800676,-56.85847966149982A1,1,0,0,0,-44.87504365614284,-58.25257124676363Z" style="fill: rgb(109, 174, 213);"></path><path class="band-path" d="M-53.05374709959259,-59.33346373415653A1,1,0,0,0,-54.47507056215412,-59.4039282139517A80.6,80.6,0,0,0,-56.569656043557714,-57.412838417148244A1,1,0,0,0,-56.57124385439489,-55.989770215340116L-52.26373026276143,-51.726531867324276A1,1,0,0,0,-50.859166753105555,-51.724237618159265A72.53999999999999,72.53999999999999,0,0,1,-49.082888896908365,-53.4127477062709A1,1,0,0,0,-49.01406684602106,-54.81562597666634Z" style="fill: rgb(227, 238, 249);"></path><path class="band-path" d="M-56.57124385439492,-55.98977021534009A1,1,0,0,0,-57.994219701774696,-55.973480159646016A80.6,80.6,0,0,0,-66.25791632538757,-45.893883298517444A1,1,0,0,0,-65.99488852590615,-44.49533333343193L-60.969828797056095,-41.107317796928406A1,1,0,0,0,-59.58932951890104,-41.36621093945912A72.53999999999999,72.53999999999999,0,0,1,-52.24692498637541,-50.322067023007506A1,1,0,0,0,-52.26373026276146,-51.72653186732425Z" style="fill: rgb(34, 113, 180);"></path><path class="band-path" d="M-65.99488852590618,-44.495333333431894A1,1,0,0,0,-67.39002375471387,-44.21475656767885A80.6,80.6,0,0,0,-74.28652700661688,-31.27094346666213A1,1,0,0,0,-73.7412255286841,-29.956496082281504L-68.12633517827793,-27.675513638899762A1,1,0,0,0,-66.82870068990441,-28.213053080075632A72.53999999999999,72.53999999999999,0,0,1,-60.692187504173475,-39.730466596281595A1,1,0,0,0,-60.96982879705612,-41.10731779692838Z" style="fill: rgb(227, 238, 249);"></path><path class="band-path" d="M-73.76825479051853,-29.9674763985218A0.971184512811276,0.971184512811276,0,1,0,-74.47724443877267,-28.159281193633603L-68.68474481958972,-25.96918102518973A0.8956502209210795,0.8956502209210795,0,0,0,-68.03089714521586,-27.636743072733683Z" style="fill: rgb(195, 219, 238);"></path><path class="band-path" d="M-74.44995539762132,-28.148963414168467A1,1,0,0,0,-75.74335738848325,-27.555467906034558A80.6,80.6,0,0,0,-76.68251971223435,-24.822392523340454A1,1,0,0,0,-76.02711730166233,-23.559232474749205L-70.23817191533632,-21.765357933920086A1,1,0,0,0,-68.99110162986649,-22.411592890676722A72.53999999999999,72.53999999999999,0,0,1,-68.19466087637863,-24.729331328519812A1,1,0,0,0,-68.78110011140608,-26.005612230146305Z" style="fill: rgb(227, 238, 249);"></path><path class="band-path" d="M-76.0271173016623,-23.559232474749223A1,1,0,0,0,-77.28194396902148,-22.8880129405989A80.6,80.6,0,0,0,-79.48272075822307,-13.37374670278806A1,1,0,0,0,-78.6501083997757,-12.219674656206312L-72.66144016777679,-11.289229944712517A1,1,0,0,0,-71.52194889271009,-12.110426358661648A72.53999999999999,72.53999999999999,0,0,1,-69.5750389939708,-20.52719047964047A1,1,0,0,0,-70.23817191533631,-21.7653579339201Z" style="fill: rgb(109, 174, 213);"></path><path class="band-path" d="M-78.6501083997757,-12.219674656206314A1,1,0,0,0,-79.79362941820712,-11.372629611036771A80.6,80.6,0,0,0,-80.59401504211134,0.982211480247959A1,1,0,0,0,-79.56934213098181,1.9697189755805449L-73.51068053271982,1.8197383373458709A1,1,0,0,0,-72.53548987325172,0.8088935946072898A72.53999999999999,72.53999999999999,0,0,1,-71.82482482963226,-10.161010687556615A1,1,0,0,0,-72.66144016777679,-11.289229944712519Z" style="fill: rgb(227, 238, 249);"></path><path class="band-path" d="M-79.56934213098182,1.9697189755805435A1,1,0,0,0,-80.54389892163576,3.00671689743526A80.6,80.6,0,0,0,-79.19476304635049,14.98497601040453A1,1,0,0,0,-78.01395081810065,15.779210301880523L-72.07372163822049,14.577731278093552A1,1,0,0,0,-71.28921131264674,13.41267871906274A72.53999999999999,72.53999999999999,0,0,1,-72.48666856687599,2.781093323833544A1,1,0,0,0,-73.51068053271983,1.819738337345869Z" style="fill: rgb(8, 48, 107);"></path><path class="band-path" d="M-78.01395081810062,15.779210301880507A1,1,0,0,0,-78.79328810789353,16.969907163755504A80.6,80.6,0,0,0,-76.98004469901683,23.883733337511778A1,1,0,0,0,-75.71665785988377,24.53869846852722L-69.95135183825965,22.67024428628876A1,1,0,0,0,-69.30425759354027,21.42361966167752A72.53999999999999,72.53999999999999,0,0,1,-70.89810899294244,15.346326636197142A1,1,0,0,0,-72.07372163822046,14.577731278093536Z" style="fill: rgb(227, 238, 249);"></path><path class="band-path" d="M-75.71665785988378,24.538698468527176A1,1,0,0,0,-76.35569961019505,25.8102138123197A80.6,80.6,0,0,0,-72.95484690634098,34.26295832050044A1,1,0,0,0,-71.61326353743642,34.737594699657585L-66.1604029494193,32.09256427228075A1,1,0,0,0,-65.69125272389863,30.768667757393736A72.53999999999999,72.53999999999999,0,0,1,-68.69604325898501,23.300327048341128A1,1,0,0,0,-69.95135183825965,22.670244286288717Z" style="fill: rgb(34, 113, 180);"></path><path class="band-path" d="M-71.61326353743644,34.73759469965756A1,1,0,0,0,-72.07100839811571,36.08503496574078A80.6,80.6,0,0,0,-68.41807211584415,42.606659197256334A1,1,0,0,0,-67.02997171241427,42.92019212716717L-61.92609747303602,39.65211282844888A1,1,0,0,0,-61.61593213291512,38.282221818906976A72.53999999999999,72.53999999999999,0,0,1,-64.83024931447166,32.54366872101924A1,1,0,0,0,-66.1604029494193,32.09256427228073Z" style="fill: rgb(227, 238, 249);"></path><path class="band-path" d="M-67.02997171241428,42.92019212716714A1,1,0,0,0,-67.32604145251238,44.31212184419273A80.6,80.6,0,0,0,-59.08092575223406,54.825215113659205A1,1,0,0,0,-57.65854315912014,54.86941225097894L-53.268239156419675,50.69148150502682A1,1,0,0,0,-53.22388997190856,49.28761645949386A72.53999999999999,72.53999999999999,0,0,1,-60.552115479106476,39.943621656091146A1,1,0,0,0,-61.92609747303604,39.652112828448864Z" style="fill: rgb(8, 48, 107);"></path><path class="band-path" d="M-57.6585431591202,54.8694122509789A1,1,0,0,0,-57.68486768055705,56.292237836815694A80.6,80.6,0,0,0,-54.190608271922386,59.663539746809A1,1,0,0,0,-52.76963772364806,59.58628478530055L-48.75159045735078,55.04919643263417A1,1,0,0,0,-48.82711487494309,53.64666301820747A72.53999999999999,72.53999999999999,0,0,1,-51.86390084687537,50.71673677343092A1,1,0,0,0,-53.26823915641973,50.69148150502677Z" style="fill: rgb(227, 238, 249);"></path><path class="band-path" d="M-52.769637723648025,59.58628478530057A1,1,0,0,0,-52.67453746993772,61.006172657593645A80.6,80.6,0,0,0,-49.683275533779835,63.4659919345354A1,1,0,0,0,-48.271756665469184,63.285049643890865L-44.59619230164305,58.466325625909406A1,1,0,0,0,-44.774060651183575,57.073068016395716A72.53999999999999,72.53999999999999,0,0,1,-47.350213702055115,54.95460728974151A1,1,0,0,0,-48.751590457350744,55.04919643263419Z" style="fill: rgb(109, 174, 213);"></path><path class="band-path" d="M-48.27175666546919,63.28504964389085A1,1,0,0,0,-48.07309600483364,64.69418397746468A80.6,80.6,0,0,0,-44.90999069982482,66.92871383301525A1,1,0,0,0,-43.51547930157566,66.64505278829135L-40.20207295292915,61.570487494313056A1,1,0,0,0,-40.48133311401458,60.19396372820272A72.53999999999999,72.53999999999999,0,0,1,-43.205482170714355,58.2695281463312A1,1,0,0,0,-44.59619230164306,58.4663256259094Z" style="fill: rgb(227, 238, 249);"></path><path class="band-path" d="M-43.51547930157565,66.64505278829134A1,1,0,0,0,-43.21432165462236,68.0358905573436A80.6,80.6,0,0,0,-19.26579097395097,78.26358858465429A1,1,0,0,0,-18.05282278639646,77.51938847438724L-16.678223710585055,71.61681683696698A1,1,0,0,0,-17.412127392092565,70.41924040829706A72.53999999999999,72.53999999999999,0,0,1,-38.8294738483319,61.272535125141566A1,1,0,0,0,-40.20207295292915,61.57048749431307Z" style="fill: rgb(8, 48, 107);"></path><path class="band-path" d="M-18.052822786396444,77.51938847438726A1,1,0,0,0,-17.293443111062963,78.72291169262242A80.6,80.6,0,0,0,-11.874012022816352,79.72056095187747A1,1,0,0,0,-10.735830226153661,78.86635498966086L-9.918370126890993,72.86122105774781A1,1,0,0,0,-10.760887485913091,71.73740238198981A72.53999999999999,72.53999999999999,0,0,1,-15.49073766001076,70.86669631603213A1,1,0,0,0,-16.678223710585037,71.61681683696698Z" style="fill: rgb(227, 238, 249);"></path><path class="band-path" d="M-10.73583022615366,78.86635498966086A1,1,0,0,0,-9.867392907535042,79.99371573572718A80.6,80.6,0,0,0,4.4645566138558594,80.47625571708512A1,1,0,0,0,5.406855136234748,79.40986032940602L4.995160069969822,73.36334218037901A1,1,0,0,0,3.9431122614872995,72.43275133317321A72.53999999999999,72.53999999999999,0,0,1,-8.806111943096226,72.00349986247653A1,1,0,0,0,-9.918370126890991,72.86122105774783Z" style="fill: rgb(8, 48, 107);"></path><path class="band-path" d="M5.406855136234739,79.409860329406A1,1,0,0,0,6.485004290177316,80.33868756306876A80.6,80.6,0,0,0,14.5449427909589,79.27675976733491A1,1,0,0,0,15.345722386717254,78.10037646791343L14.17725050506031,72.15356656546346A1,1,0,0,0,13.016572630526266,71.36259830579485A72.53999999999999,72.53999999999999,0,0,1,5.911359086775163,72.29873742844477A1,1,0,0,0,4.995160069969815,73.36334218037901Z" style="fill: rgb(227, 238, 249);"></path><path class="band-path" d="M15.34572238671726,78.10037646791342A1,1,0,0,0,16.53207289671473,78.88631418527368A80.6,80.6,0,0,0,18.393761257536315,78.47311352814259A1,1,0,0,0,19.136218852344264,77.25907796521508L17.679126570422632,71.37632719401424A1,1,0,0,0,16.481256219191003,70.64290334801775A72.53999999999999,72.53999999999999,0,0,1,14.95236268731641,70.98224038495086A1,1,0,0,0,14.177250505060314,72.15356656546345Z" style="fill: rgb(195, 219, 238);"></path><path class="band-path" d="M19.136218852344275,77.25907796521508A1,1,0,0,0,20.359485966055345,77.9862252657352A80.6,80.6,0,0,0,25.95102966300492,76.30795541376952A1,1,0,0,0,26.57168581595583,75.02736509366521L24.54843354136488,69.31454400531818A1,1,0,0,0,23.284811599929913,68.70130383592272A72.53999999999999,72.53999999999999,0,0,1,18.396193914571796,70.16859446688005A1,1,0,0,0,17.679126570422646,71.37632719401422Z" style="fill: rgb(227, 238, 249);"></path><path class="band-path" d="M26.57168581595582,75.02736509366521A1,1,0,0,0,27.85997226579003,75.63188444928112A80.6,80.6,0,0,0,35.33704204602079,72.44068925291751A1,1,0,0,0,35.79180628723503,71.0922401018356L33.06650485231882,65.67905188758112A1,1,0,0,0,31.73582167647684,65.22951189851769A72.53999999999999,72.53999999999999,0,0,1,25.144434227935406,68.04270002988586A1,1,0,0,0,24.54843354136487,69.31454400531818Z" style="fill: rgb(8, 48, 107);"></path><path class="band-path" d="M35.79180628723509,71.09224010183557A1,1,0,0,0,37.1458621437065,71.53002813924199A80.6,80.6,0,0,0,41.66642613195057,68.99470221249386A1,1,0,0,0,41.998924690027955,67.61102221443898L38.80099361038047,62.462904950436084A1,1,0,0,0,37.435475218592764,62.134022847053174A72.53999999999999,72.53999999999999,0,0,1,33.49790859241655,64.34237887997385A1,1,0,0,0,33.06650485231889,65.67905188758111Z" style="fill: rgb(227, 238, 249);"></path><path class="band-path" d="M41.99892469002792,67.61102221443899A1,1,0,0,0,43.38667261217634,67.92611161875695A80.6,80.6,0,0,0,50.265091181675324,63.00619500095102A1,1,0,0,0,50.41527307589509,61.591072735283035L46.57649458696392,56.90133348165505A1,1,0,0,0,45.17984961474235,56.752381349061146A72.53999999999999,72.53999999999999,0,0,1,39.11127692981624,61.09304065864805A1,1,0,0,0,38.800993610380445,62.4629049504361Z" style="fill: rgb(8, 48, 107);"></path><path class="band-path" d="M50.41527307589508,61.59107273528305A1,1,0,0,0,51.83217037403181,61.72346485994881A80.6,80.6,0,0,0,61.45303463537529,52.152512251121365A1,1,0,0,0,61.32801402667019,50.73494550647061L56.65830489586686,46.871826146705516A1,1,0,0,0,55.25910662129198,46.99449686310816A72.53999999999999,72.53999999999999,0,0,1,46.70644131096782,55.50279218260211A1,1,0,0,0,46.57649458696392,56.901333481655065Z" style="fill: rgb(227, 238, 249);"></path></g></svg>