<svg id="svg" height="500" width="500" xmlns:xlink="http://www.w3.org/1999/xlink" xmlns="http://www.w3.org/2000/svg">
  <defs>
     <radialGradient id="grad1" cx="70%" cy="50%" r="60%" fx="50%" fy="50%">
      <stop offset="0%" style="stop-color:rgb(255,255,255);
      stop-opacity:0"></stop>
      <stop offset="100%" style="stop-color:#000;stop-opacity:0.8"></stop>
    </radialGradient>
    <g id="charN">
    <path d="M 43.848 1.953 L 66.895 1.172 L 63.379 67.383 L 37.793 69.727 L 24.121 34.277 L 21.973 70.41 L 0 70.41 L 1.758 1.172 L 26.172 0 L 43.066 35.156 L 43.848 1.953 Z" vector-effect="non-scaling-stroke"></path></g>
    
    <g id="charB">
    <path d="M 0.098 67.676 L 0 4.785 A 57.841 57.841 0 0 1 4.669 3.105 A 65.393 65.393 0 0 1 5.811 2.759 A 66.496 66.496 0 0 1 12.085 1.245 Q 15.283 0.635 18.457 0.317 A 62.649 62.649 0 0 1 23.862 0.005 A 56.598 56.598 0 0 1 24.609 0 A 56.835 56.835 0 0 1 31.616 0.439 A 38.643 38.643 0 0 1 38.428 1.904 Q 41.699 2.93 44.531 4.565 A 19.855 19.855 0 0 1 49.487 8.594 A 17.623 17.623 0 0 1 52.713 13.913 A 19.98 19.98 0 0 1 52.808 14.16 A 18.046 18.046 0 0 1 53.758 17.924 A 24.625 24.625 0 0 1 54.004 21.484 A 16.976 16.976 0 0 1 53.583 25.316 A 15.175 15.175 0 0 1 53.223 26.611 Q 52.441 29.004 50.977 30.908 A 13.9 13.9 0 0 1 47.412 34.155 A 15.06 15.06 0 0 1 43.566 35.894 A 17.486 17.486 0 0 1 42.676 36.133 A 21.453 21.453 0 0 1 47.632 38.09 A 19.754 19.754 0 0 1 48.462 38.574 Q 51.074 40.186 52.905 42.48 Q 54.736 44.775 55.737 47.656 A 18.397 18.397 0 0 1 56.728 53.148 A 21.006 21.006 0 0 1 56.738 53.809 A 18.509 18.509 0 0 1 56.453 57.14 A 13.288 13.288 0 0 1 55.249 60.791 Q 53.76 63.721 51.27 65.771 A 21.005 21.005 0 0 1 46.528 68.693 A 24.175 24.175 0 0 1 45.532 69.116 Q 42.285 70.41 38.77 71.143 Q 35.254 71.875 31.714 72.119 A 107.341 107.341 0 0 1 28.29 72.302 A 86.647 86.647 0 0 1 25.098 72.363 Q 22.07 72.363 18.823 72.144 A 66.739 66.739 0 0 1 12.354 71.387 A 55.979 55.979 0 0 1 6.006 69.946 A 36.117 36.117 0 0 1 0.098 67.676 Z M 22.266 42.188 L 22.07 53.32 A 54.975 54.975 0 0 0 23.511 53.589 A 8.181 8.181 0 0 0 24.902 53.711 A 11.147 11.147 0 0 0 26.047 53.649 A 14.841 14.841 0 0 0 27.148 53.491 A 6.583 6.583 0 0 0 29.443 52.612 A 5.479 5.479 0 0 0 31.215 50.848 A 6.299 6.299 0 0 0 31.226 50.83 A 4.202 4.202 0 0 0 31.722 49.662 Q 31.934 48.866 31.934 47.852 Q 31.934 46.405 31.503 45.373 A 4.158 4.158 0 0 0 31.226 44.824 Q 30.518 43.652 29.492 42.993 A 6.115 6.115 0 0 0 27.246 42.114 A 14.709 14.709 0 0 0 26.074 41.949 A 11.047 11.047 0 0 0 25 41.895 Q 23.584 41.895 22.266 42.188 Z M 22.559 21.68 L 22.266 32.52 A 16.622 16.622 0 0 0 23.163 32.493 Q 23.581 32.471 24.052 32.428 A 36.195 36.195 0 0 0 25.049 32.324 A 11.484 11.484 0 0 0 28.247 31.47 A 6.865 6.865 0 0 0 30.859 29.517 A 4.383 4.383 0 0 0 31.696 27.88 Q 31.874 27.245 31.919 26.492 A 8.719 8.719 0 0 0 31.934 25.977 A 5.717 5.717 0 0 0 31.825 24.836 A 4.141 4.141 0 0 0 31.348 23.56 A 5.646 5.646 0 0 0 30.427 22.368 A 5.037 5.037 0 0 0 29.907 21.924 A 5.843 5.843 0 0 0 28.052 20.996 Q 27.051 20.703 26.27 20.703 A 6.287 6.287 0 0 0 24.365 20.996 A 17.19 17.19 0 0 0 22.559 21.68 Z" vector-effect="non-scaling-stroke"></path>
    </g>  
</defs>
  <g id="cnbicon" transform="scale(1.0)">
    <circle cx="250" cy="250" r="250" fill="#F0F0F0" opacity="1.0"></circle>
    <g transform="translate(175,175)">
    <use xlink:href="#charN" fill="#226A98" transform="scale(2)"></use> 
    </g> 
     <g transform="translate(325,175)">
    <use xlink:href="#charB" fill="#CE5156" transform="scale(2)"></use> 
    </g>   
</g>
  <g transform="translate(250,250)"><path class="path2" d="M146.35734752439535,-201.44360706069423A1,1,0,0,0,146.13286197793212,-202.84276336645252A250,250,0,1,0,191.98677333316985,160.1283199971762A1,1,0,0,0,191.85625022958592,158.71729347441172L162.5764683546738,134.49495134510352A1,1,0,0,0,161.17156074234254,134.6243960353301A210,210,0,1,1,122.62833392819029,-170.4766603321295A1,1,0,0,0,124.0212953698423,-170.70066870046622Z" style="fill: rgb(206, 81, 70);"></path></g><g transform="translate(469,63) rotate(80)"><path d="M 0 97 L 48 48 L  -48 48 Z" style="fill: rgb(206, 81, 70);"></path></g><g opacity="0.9" class="chr" transform="translate(250,250)"><path class="path1" d="M122.84571153626466,-169.08261636593178A1,1,0,0,0,122.62060217127674,-170.48222172166072A210,210,0,0,0,104.41962256985056,-182.19918337459683A1,1,0,0,0,103.05240192325108,-181.82464755320913L84.31512495438643,-148.7647797831402A1,1,0,0,0,84.68695076909836,-147.4046144780831A170,170,0,0,1,99.11749835464684,-138.11488522210985A1,1,0,0,0,100.50955945699029,-138.3395404711239Z" style="fill: rgb(232, 246, 227);"></path><path class="path1" d="M103.0524019232511,-181.82464755320908A1,1,0,0,0,102.671328663477,-183.19006051223488A210,210,0,0,0,95.4331885771591,-187.0628410935651A1,1,0,0,0,94.08580521264696,-186.6222421296236L76.97886002546971,-152.69006224761043A1,1,0,0,0,77.41640899371305,-151.34959404807847A170,170,0,0,1,82.95715732734253,-148.38500614336525A1,1,0,0,0,84.31512495438646,-148.7647797831402Z" style="fill: rgb(198, 232, 191);"></path><path class="path1" d="M94.08580521264695,-186.62224212962363A1,1,0,0,0,93.63876448174864,-187.96750194204216A210,210,0,0,0,77.80445509163174,-195.05503522825106A1,1,0,0,0,76.50336210255827,-194.49225071196244L62.593306072689515,-159.12912377968593A1,1,0,0,0,63.15241685155562,-157.8346357609994A170,170,0,0,1,75.64097351306886,-152.24468176588374A1,1,0,0,0,76.9788600254697,-152.6900622476104Z" style="fill: rgb(232, 246, 227);"></path><path class="path1" d="M76.50336210255823,-194.49225071196244A1,1,0,0,0,75.93435870298289,-195.7906360589462A210,210,0,0,0,51.73572368253431,-203.52743032585178A1,1,0,0,0,50.51901718900684,-202.79997263869848L41.33350768511159,-165.92631238729084A1,1,0,0,0,42.05646263300984,-164.71567609307334A170,170,0,0,1,61.3021098426808,-158.56245245592004A1,1,0,0,0,62.59330607268948,-159.12912377968595Z" style="fill: rgb(115, 195, 120);"></path><path class="path1" d="M50.51901718900684,-202.79997263869848A1,1,0,0,0,49.78574626666604,-204.01318454617382A210,210,0,0,0,33.83875245476088,-207.25573292988886A1,1,0,0,0,32.68992378381312,-206.4252137773109L26.746150086189264,-168.89240200662385A1,1,0,0,0,27.57165563109111,-167.74922892746937A170,170,0,0,1,40.12711989879098,-165.19629005709558A1,1,0,0,0,41.3335076851116,-165.9263123872908Z" style="fill: rgb(232, 246, 227);"></path><path class="path1" d="M32.6899237838131,-206.42521377731086A1,1,0,0,0,31.853917350031036,-207.5700555221234A210,210,0,0,0,7.63050444439513,-209.86132421655037A1,1,0,0,0,6.594666653756642,-208.89353836757573L5.395605852623635,-170.91192889170472A1,1,0,0,0,6.357709615954092,-169.88107466236255A170,170,0,0,1,25.60782407244306,-168.06022535470672A1,1,0,0,0,26.746150086189246,-168.89240200662385Z" style="fill: rgb(0, 68, 27);"></path><path class="path1" d="M6.59466665375664,-208.89353836757573A1,1,0,0,0,5.621935721048813,-209.92473374699895A210,210,0,0,0,0.6401086720190862,-209.9990244284197A1,1,0,0,0,-0.3629379566839621,-208.99729250887341L-0.2969475586924054,-170.99681816381084A1,1,0,0,0,0.6989395245095374,-169.99856318081362A170,170,0,0,1,4.37039558809291,-169.94381319248896A1,1,0,0,0,5.395605852623632,-170.91192889170472Z" style="fill: rgb(232, 246, 227);"></path><path class="path1" d="M-0.3629379566839612,-208.99729250887341A1,1,0,0,0,-1.369457675881615,-209.99553468032116A210,210,0,0,0,-22.444570288201476,-208.7971294452536A1,1,0,0,0,-23.331440663594776,-207.69122243503978L-19.08925263461521,-169.92822141672596A1,1,0,0,0,-17.989681696051992,-169.0454712569217A170,170,0,0,1,-1.2893615710324777,-169.9951103612664A1,1,0,0,0,-0.2969475586924045,-170.99681816381084Z" style="fill: rgb(0, 68, 27);"></path><path class="path1" d="M-23.33144066359479,-207.69122243503978A1,1,0,0,0,-24.441578413759355,-208.57279123760142A210,210,0,0,0,-48.40310614347641,-204.3456368892259A1,1,0,0,0,-49.144575657073126,-203.13741822590498L-40.20897097034587,-166.20240267067706A1,1,0,0,0,-39.007554273504695,-165.46422788506155A170,170,0,0,1,-19.965557460492903,-168.8235069985568A1,1,0,0,0,-19.08925263461522,-169.92822141672596Z" style="fill: rgb(232, 246, 227);"></path><path class="path1" d="M-49.144575657073084,-203.137418225905A1,1,0,0,0,-50.356328191311654,-203.87309830158793A210,210,0,0,0,-72.08692844702242,-197.2396378699623A1,1,0,0,0,-72.68124053344488,-195.95264038670035L-59.466133375340284,-160.32398130468889A1,1,0,0,0,-58.1862779776767,-159.7321415842927A170,170,0,0,1,-40.940107304960726,-164.99668970575834A1,1,0,0,0,-40.208970970345824,-166.2024026706771Z" style="fill: rgb(198, 232, 191);"></path><path class="path1" d="M-72.68124053344488,-195.95264038670038A1,1,0,0,0,-73.97106688334534,-196.5407877875217A210,210,0,0,0,-92.36377409026875,-188.59727791196192A1,1,0,0,0,-92.8199141525244,-187.25507613071002L-75.94313683104707,-153.20783259435808A1,1,0,0,0,-74.60829693819291,-152.75340267235433A170,170,0,0,1,-60.050478441128554,-159.04068674081975A1,1,0,0,0,-59.46613337534028,-160.32398130468889Z" style="fill: rgb(232, 246, 227);"></path><path class="path1" d="M-92.81991415252442,-187.25507613071A1,1,0,0,0,-94.1642830583449,-187.7047889535797A210,210,0,0,0,-109.33608142287886,-179.29200009785603A1,1,0,0,0,-109.66670393349546,-177.91350159097834L-89.72679600786796,-145.56476935770704A1,1,0,0,0,-88.35578557532678,-145.23517189498855A170,170,0,0,1,-76.38975290131589,-151.87035804157406A1,1,0,0,0,-75.94313683104707,-153.20783259435808Z" style="fill: rgb(115, 195, 120);"></path><path class="path1" d="M-109.66670393349547,-177.91350159097837A1,1,0,0,0,-111.04676858701633,-178.23752463042584A210,210,0,0,0,-121.46335087284668,-171.3086524222864A1,1,0,0,0,-121.69793266462852,-169.91060351006809L-99.57047296142196,-139.0169806686893A1,1,0,0,0,-98.1799650545188,-138.78290406924575A170,170,0,0,1,-90.04837022979089,-144.19185489811312A1,1,0,0,0,-89.72679600786797,-145.56476935770704Z" style="fill: grey;"></path><path class="path1" d="M-121.69793266462851,-169.91060351006806A1,1,0,0,0,-123.09708797473209,-170.13849338741974A210,210,0,0,0,-132.59336040499915,-162.84655592461883A1,1,0,0,0,-132.73439332630016,-161.43599607367324L-108.60025336805471,-132.08325014321204A1,1,0,0,0,-107.19725142523684,-131.94221950109284A170,170,0,0,1,-99.79641393310375,-137.62512766966873A1,1,0,0,0,-99.57047296142194,-139.01698066868934Z" style="fill: grey;"></path><path class="path1" d="M-132.73439332630016,-161.43599607367327A1,1,0,0,0,-134.14561182967108,-161.5702782904183A210,210,0,0,0,-163.62979970791457,-131.62556228767934A1,1,0,0,0,-163.47366322315656,-130.21659430503468L-133.75042293217902,-106.54024763188434A1,1,0,0,0,-132.34884726355628,-106.69481068921695A170,170,0,0,1,-108.73307690890701,-130.67944745032293A1,1,0,0,0,-108.6002533680547,-132.08325014321204Z" style="fill: rgb(232, 246, 227);"></path><path class="path1" d="M-163.47366322315654,-130.21659430503465A1,1,0,0,0,-164.88186801326128,-130.0537181339214A210,210,0,0,0,-176.2330522336353,-114.20118782401855A1,1,0,0,0,-175.9336408432505,-112.81557525287958L-143.94489244827525,-92.30313070559669A1,1,0,0,0,-142.56647251908794,-92.60022091476965A170,170,0,0,1,-133.58766616884645,-105.13959980692736A1,1,0,0,0,-133.75042293217902,-106.54024763188434Z" style="fill: rgb(34, 139, 69);"></path><path class="path1" d="M-176.099609844247,-112.9220011088548A0.8036882816089781,0.8036882816089781,0,1,0,-176.9620504209619,-111.56560237157841L-144.3599493851103,-91.01163030811801A0.655623052391644,0.655623052391644,0,0,0,-143.65639809992766,-92.11813677429787Z" style="fill: rgb(232, 246, 227);"></path><path class="path1" d="M-176.7952685936317,-111.46045488380899A1,1,0,0,0,-178.17704040732463,-111.14379097226528A210,210,0,0,0,-186.49620611726684,-96.53582290458775A1,1,0,0,0,-186.06356890501272,-95.18586200864918L-152.2329685568023,-77.87890140714391A1,1,0,0,0,-150.88994071053688,-78.30852949947833A170,170,0,0,1,-144.33414197459325,-89.8201283703044A1,1,0,0,0,-144.64985662263447,-91.19440212563099Z" style="fill: rgb(34, 139, 69);"></path><path class="path1" d="M-186.06356890501272,-95.18586200864917A1,1,0,0,0,-187.41144431385916,-94.74677060561628A210,210,0,0,0,-190.5213372079519,-88.32678001882496A1,1,0,0,0,-190.03035076231433,-86.99692976853714L-155.47849900270376,-71.17890381191788A1,1,0,0,0,-154.15544425453723,-71.6665822171413A170,170,0,0,1,-151.79549384684782,-76.53840897086629A1,1,0,0,0,-152.23296855680232,-77.87890140714391Z" style="fill: rgb(232, 246, 227);"></path><path class="path1" d="M-190.03035076231436,-86.99692976853711A1,1,0,0,0,-191.35783657277554,-86.49958602321135A210,210,0,0,0,-200.0787834379997,-63.78464092530442A1,1,0,0,0,-199.42520159329015,-62.526706050099584L-163.16515168578715,-51.15792485386855A1,1,0,0,0,-161.9135448024024,-51.80737408439481A170,170,0,0,1,-154.98309177423042,-69.85872360772466A1,1,0,0,0,-155.47849900270373,-71.17890381191786Z" style="fill: rgb(115, 195, 120);"></path><path class="path1" d="M-199.42520159329018,-62.526706050099584A1,1,0,0,0,-200.6799948834447,-61.867112859584715A210,210,0,0,0,-205.10172573143623,-45.091929455133254A1,1,0,0,0,-204.33509877715227,-43.8995148917554L-167.18231758240384,-35.917581875402966A1,1,0,0,0,-165.99582363089422,-36.67951113497921A170,170,0,0,1,-162.50839422196975,-49.910137320957894A1,1,0,0,0,-163.16515168578718,-51.15792485386855Z" style="fill: rgb(232, 246, 227);"></path><path class="path1" d="M-204.3350987771522,-43.899514891755395A1,1,0,0,0,-205.52383161977875,-43.12719137997327A210,210,0,0,0,-208.9265269069216,-21.206281017928667A1,1,0,0,0,-208.0278595874701,-20.10993872332345L-170.20365025721617,-16.453493219351248A1,1,0,0,0,-169.11264906468557,-17.346813146065124A170,170,0,0,1,-166.41346279025956,-34.73556393892144A1,1,0,0,0,-167.18231758240378,-35.91758187540296Z" style="fill: rgb(115, 195, 120);"></path><path class="path1" d="M-208.02785958747012,-20.109938723323445A1,1,0,0,0,-209.11988948895134,-19.20603603372609A210,210,0,0,0,-209.5524581900883,-13.702819654775338A1,1,0,0,0,-208.61506562471752,-12.639398498140782L-170.68408884458032,-10.341267586491632A1,1,0,0,0,-169.62581365755887,-11.273124722592424A170,170,0,0,1,-169.3039654818261,-15.367734775451984A1,1,0,0,0,-170.20365025721617,-16.453493219351245Z" style="fill: rgb(232, 246, 227);"></path><path class="path1" d="M-208.6150656247175,-12.63939849814078A1,1,0,0,0,-209.67398947680815,-11.69692852330659A210,210,0,0,0,-206.68135802392138,37.18623731150577A1,1,0,0,0,-205.51537671108642,37.992498408241794L-168.1479940695436,31.084595708947603A1,1,0,0,0,-167.34539377017126,29.925226547284815A170,170,0,0,1,-169.7460588989166,-9.288459952303226A1,1,0,0,0,-170.68408884458026,-10.34126758649163Z" style="fill: rgb(0, 68, 27);"></path><path class="path1" d="M-205.5153767110864,37.9924984082418A1,1,0,0,0,-206.3160497208455,39.16232408304712A210,210,0,0,0,-198.72823545373663,67.87553634001148A1,1,0,0,0,-197.45416951257116,68.49708710668516L-161.55249819034802,56.042754468865965A1,1,0,0,0,-160.93357113527975,54.77577641298979A170,170,0,0,1,-166.98395116342422,31.880402347698766A1,1,0,0,0,-168.14799406954359,31.084595708947614Z" style="fill: rgb(232, 246, 227);"></path><path class="path1" d="M-197.45416951257116,68.49708710668516A1,1,0,0,0,-198.06961715525804,69.77411239112614A210,210,0,0,0,-189.60417659156363,90.27876948117509A1,1,0,0,0,-188.26708559300724,90.74968034277195L-154.03583565567595,74.24931874339038A1,1,0,0,0,-153.56671599931855,72.9195703304993A170,170,0,0,1,-160.2819223426052,56.65426171224082A1,1,0,0,0,-161.55249819034802,56.04275446886596Z" style="fill: rgb(0, 68, 27);"></path><path class="path1" d="M-188.26708559300724,90.74968034277192A1,1,0,0,0,-188.73159349964706,92.0890091980795A210,210,0,0,0,-185.4949511874608,98.44604148446773A1,1,0,0,0,-184.1386302282121,98.8583069735558L-150.6580276332045,80.88361212058092A1,1,0,0,0,-150.2472320537096,79.53470475332597A170,170,0,0,1,-152.70336659091438,74.7106540715634A1,1,0,0,0,-154.03583565567598,74.24931874339033Z" style="fill: rgb(232, 246, 227);"></path><path class="path1" d="M-184.13863022821207,98.8583069735558A1,1,0,0,0,-184.54440142425725,100.21658496956785A210,210,0,0,0,-171.09215015413983,121.76812454675186A1,1,0,0,0,-169.69368585134484,122.00021713990958L-138.83950358752747,99.8177952249445A1,1,0,0,0,-138.60790276130066,98.4268728148661A170,170,0,0,1,-149.30674101815902,81.28651232853083A1,1,0,0,0,-150.65802763320448,80.88361212058093Z" style="fill: rgb(0, 68, 27);"></path><path class="path1" d="M-169.69368585134487,122.00021713990955A1,1,0,0,0,-169.9190845710508,123.39977592579365A210,210,0,0,0,-164.63301310463544,130.36859666380144A1,1,0,0,0,-163.22449960346592,130.52878122926813L-133.54656294118195,106.7956718532962A1,1,0,0,0,-133.38648334068944,105.39471553168107A170,170,0,0,1,-137.4472505706253,100.04125804174865A1,1,0,0,0,-138.83950358752747,99.81779522494449Z" style="fill: rgb(232, 246, 227);"></path><path class="path1" d="M-163.22449960346597,130.52878122926813A1,1,0,0,0,-163.37794303630093,131.9380450409479A210,210,0,0,0,-159.15389400678956,137.0037883508175A1,1,0,0,0,-157.7400005972518,137.10613484297116L-129.05927093836627,112.17711257140364A1,1,0,0,0,-128.95671972261263,110.77077429712014A170,170,0,0,1,-132.14469443709928,106.94755598949264A1,1,0,0,0,-133.54656294118197,106.7956718532962Z" style="fill: rgb(115, 195, 120);"></path><path class="path1" d="M-157.74000059725182,137.10613484297122A1,1,0,0,0,-157.83558087763993,138.52050176424424A210,210,0,0,0,-151.5585229074737,145.36166665976543A1,1,0,0,0,-150.1411720215023,145.38785528375354L-122.84208270292419,118.95302735621289A1,1,0,0,0,-122.81528349287953,117.5432096744156A170,170,0,0,1,-127.65235699694605,112.27143783315611A1,1,0,0,0,-129.05927093836627,112.17711257140367Z" style="fill: rgb(232, 246, 227);"></path><path class="path1" d="M-150.14117202150229,145.38785528375354A1,1,0,0,0,-150.16057876253086,146.80531525016988A210,210,0,0,0,-126.66598129321946,167.49844531524994A1,1,0,0,0,-125.26232145211246,167.30018178241062L-102.48677457491124,136.88119314657993A1,1,0,0,0,-102.68324399420784,135.48487518105472A170,170,0,0,1,-121.43213240767152,118.9715815601597A1,1,0,0,0,-122.84208270292419,118.9530273562129Z" style="fill: rgb(0, 68, 27);"></path><path class="path1" d="M-125.26232145211247,167.30018178241062A1,1,0,0,0,-125.05734411293956,168.70287692691494A210,210,0,0,0,-100.48056901080666,184.40080057110524A1,1,0,0,0,-99.1217117390165,183.9969735129556L-81.09912389225164,150.54212733952315A1,1,0,0,0,-81.50008997004876,149.19026554998132A170,170,0,0,1,-101.0916294295923,136.6765614846598A1,1,0,0,0,-102.48677457491125,136.88119314657996Z" style="fill: rgb(232, 246, 227);"></path><path class="path1" d="M-99.12171173901652,183.99697351295563A1,1,0,0,0,-98.71138759391563,185.35388304344676A210,210,0,0,0,-84.55495809292154,192.2250219453864A1,1,0,0,0,-83.235042145895,191.70792304693896L-68.1010131558257,156.85105038586784A1,1,0,0,0,-68.61467073506063,155.53786342855304A170,170,0,0,1,-79.7496300496329,150.13326249351505A1,1,0,0,0,-81.09912389225165,150.54212733952318Z" style="fill: rgb(0, 68, 27);"></path><path class="path1" d="M-83.235042145895,191.707923046939A1,1,0,0,0,-82.71163377921198,193.0253497278881A210,210,0,0,0,-55.69247029647378,202.4804898064907A1,1,0,0,0,-54.46181737494361,201.77688283898706L-44.55941687444832,165.0892436466081A1,1,0,0,0,-45.25864026081956,163.8647475259451A170,170,0,0,1,-66.79085249874488,156.32972213399123A1,1,0,0,0,-68.10101315582568,156.85105038586784Z" style="fill: rgb(232, 246, 227);"></path><path class="path1" d="M-54.461817374943564,201.77688283898704A1,1,0,0,0,-53.75233016992006,203.00415513310045A210,210,0,0,0,-38.929124951559515,206.36017840297063A1,1,0,0,0,-37.76020492789614,205.55818379184834L-30.894538481208077,168.183017846729A1,1,0,0,0,-31.691660188865097,167.01987508818678A170,170,0,0,1,-43.339030717615664,164.38287142052715A1,1,0,0,0,-44.559416874448274,165.08924364660808Z" style="fill: rgb(198, 232, 191);"></path><path class="path1" d="M-37.76020492789611,205.55818379184834A1,1,0,0,0,-36.952626578183896,206.72325314045662A210,210,0,0,0,-12.25604484735146,209.64205056405A1,1,0,0,0,-11.199119432747803,208.69734000204954L-9.162864103395364,170.75140386369515A1,1,0,0,0,-10.102003847633377,169.69958608748112A170,170,0,0,1,-29.73607714219189,167.37910776495855A1,1,0,0,0,-30.89453848120805,168.183017846729Z" style="fill: rgb(232, 246, 227);"></path><path class="path1" d="M-11.1991194327478,208.6973400020495A1,1,0,0,0,-10.249362625156103,209.74973317212599A210,210,0,0,0,16.226946554970773,209.37212375457753A1,1,0,0,0,17.146304363014714,208.29307296857203L14.028715176869103,170.4206417969557A1,1,0,0,0,12.955875164375211,169.5055907594942A170,170,0,0,1,-8.116556357948049,169.80612919705888A1,1,0,0,0,-9.162864103395357,170.7514038636951Z" style="fill: rgb(34, 139, 69);"></path><path class="path1" d="M17.14630436301471,208.29307296857203A1,1,0,0,0,18.229741638647294,209.20725733059115A210,210,0,0,0,31.718982638781,207.59071785694252A1,1,0,0,0,32.555733084135376,206.44641978817293L26.636358316178203,168.90975228106922A1,1,0,0,0,25.49857348760285,168.07683585222955A170,170,0,0,1,14.937476649282647,169.34246895375105A1,1,0,0,0,14.028715176869097,170.4206417969557Z" style="fill: rgb(232, 246, 227);"></path><path class="path1" d="M32.55573308413538,206.44641978817296A1,1,0,0,0,33.704021645127405,207.27768554512755A210,210,0,0,0,47.56014571983661,204.54347346984187A1,1,0,0,0,48.306590605067356,203.3383222713181L39.5233507125823,166.3667777786485A1,1,0,0,0,38.32498783804172,165.62365563896344A170,170,0,0,1,27.462606790178366,167.76711605165073A1,1,0,0,0,26.63635831617821,168.90975228106922Z" style="fill: rgb(115, 195, 120);"></path><path class="path1" d="M48.306590605067356,203.33832227131813A1,1,0,0,0,49.51529951522698,204.0789923385486A210,210,0,0,0,69.24565286607815,198.2549862151028A1,1,0,0,0,69.85839450928026,196.97666033463403L57.156545138554776,161.16181107143328A1,1,0,0,0,55.88532508484704,160.55164415278023A170,170,0,0,1,40.25945217527979,165.16408965191664A1,1,0,0,0,39.52335071258229,166.36677777864853Z" style="fill: rgb(232, 246, 227);"></path><path class="path1" d="M69.85839450928025,196.97666033463395A1,1,0,0,0,71.13963753534627,197.5832785721999A210,210,0,0,0,110.43158528452642,178.61932978137156A1,1,0,0,0,110.75376299455463,177.23883316741285L90.61620293924902,145.01277104059778A1,1,0,0,0,89.24320053424708,144.69157252032394A170,170,0,0,1,57.7592675883028,159.88704452726253A1,1,0,0,0,57.156545138554755,161.16181107143325Z" style="fill: rgb(0, 68, 27);"></path><path class="path1" d="M110.75376299455469,177.23883316741285A1,1,0,0,0,112.13578532654039,177.554401942616A210,210,0,0,0,129.39443886251976,165.39975571763594A1,1,0,0,0,129.5629355836042,163.9922123850972L106.0054389738971,134.17468803001324A1,1,0,0,0,104.6054520695846,134.0063408847426A170,170,0,0,1,90.92936671338259,143.63791375922722A1,1,0,0,0,90.61620293924908,145.01277104059778Z" style="fill: rgb(232, 246, 227);"></path><path class="path1" d="M129.56293558360423,163.9922123850972A1,1,0,0,0,130.97126900883802,164.15397252035845A210,210,0,0,0,144.85431931292936,152.04350093439675A1,1,0,0,0,144.88524482892527,150.6262454914893L118.54180294502653,123.23895875307652A1,1,0,0,0,117.13208270490662,123.20744783173993A170,170,0,0,1,106.16559618260845,132.7737405784416A1,1,0,0,0,106.00543897389711,134.17468803001324Z" style="fill: rgb(198, 232, 191);"></path><path class="path1" d="M144.88524482892524,150.62624549148927A1,1,0,0,0,146.3026320179252,150.6503895269693A210,210,0,0,0,161.16545495412498,134.63170551333707A1,1,0,0,0,161.03542439647308,133.22008891097394L131.75551153269936,108.9976384182553A1,1,0,0,0,130.351315101179,109.12623264546951A170,170,0,0,1,118.56506934953212,121.82907834396777A1,1,0,0,0,118.54180294502655,123.23895875307652Z" style="fill: rgb(232, 246, 227);"></path></g></svg>