<svg width="196.396" height="196.396" xmlns:xlink="http://www.w3.org/1999/xlink" xmlns="http://www.w3.org/2000/svg"><g><circle cx="98.198" cy="98.198" r="98.198" fill="#226198"></circle></g><g transform="translate(30,63.38999999999999)" fill-rule="evenodd"><path d="M 59.745 69.616 L 15.225 17.326 L 15.225 69.301 L 9.975 69.301 L 9.975 12.601 A 14.574 14.574 0 0 0 9.724 9.807 Q 9.406 8.181 8.686 6.908 A 7.829 7.829 0 0 0 7.822 5.671 A 6.35 6.35 0 0 0 5.259 3.905 Q 4.195 3.486 2.854 3.3 A 16.955 16.955 0 0 0 0.525 3.151 L 0 3.151 L 0 0.001 L 7.35 0.001 Q 11.542 0.001 14.64 0.774 A 17.061 17.061 0 0 1 16.958 1.523 Q 20.685 3.046 23.205 6.301 L 59.325 48.301 L 59.325 0.001 L 64.575 0.001 L 64.575 69.616 L 59.745 69.616 Z" id="0" vector-effect="non-scaling-stroke" fill="#f5f0f0"></path>
<path d="M 82.32 69.301 L 82.32 13.651 A 31.123 31.123 0 0 0 82.204 10.858 Q 81.953 8.09 81.164 6.342 A 7.297 7.297 0 0 0 80.85 5.723 Q 79.645 3.614 76.463 3.234 A 12.616 12.616 0 0 0 74.97 3.151 L 73.92 3.151 L 73.92 0.001 L 102.27 0.001 A 79.031 79.031 0 0 1 111.58 0.517 Q 116.336 1.083 120.359 2.266 A 39.93 39.93 0 0 1 124.373 3.676 Q 131.5 6.628 132.902 14.322 A 22.62 22.62 0 0 1 133.245 18.376 Q 133.245 23.206 129.413 27.458 A 18.353 18.353 0 0 1 123.951 31.547 Q 121.577 32.742 118.65 33.496 Q 136.395 35.281 136.395 50.086 A 21.077 21.077 0 0 1 135.627 55.972 A 14.208 14.208 0 0 1 127.68 65.153 A 38.78 38.78 0 0 1 119.299 67.952 Q 115.26 68.837 110.545 69.141 A 79.626 79.626 0 0 1 105.42 69.301 L 82.32 69.301 Z M 103.32 65.101 L 103.845 65.101 A 32.155 32.155 0 0 0 108.872 64.734 Q 113.983 63.923 117.128 61.321 A 12.305 12.305 0 0 0 121.469 53.54 A 18.177 18.177 0 0 0 121.695 50.611 Q 121.695 36.121 103.845 36.121 L 95.97 36.121 L 95.97 64.051 Q 97.003 64.426 97.868 64.55 A 6.496 6.496 0 0 0 98.07 64.576 Q 100.308 65.084 103.137 65.1 A 32.592 32.592 0 0 0 103.32 65.101 Z M 95.97 31.396 L 103.845 31.396 A 23.508 23.508 0 0 0 108.173 31.021 Q 112.016 30.301 114.607 28.193 A 9.842 9.842 0 0 0 117.68 23.679 Q 118.261 22.012 118.452 19.954 A 22.806 22.806 0 0 0 118.545 17.851 A 17.648 17.648 0 0 0 118.133 13.905 Q 117.539 11.315 116.087 9.467 A 9.944 9.944 0 0 0 113.873 7.403 A 17.792 17.792 0 0 0 107.34 4.689 A 25.012 25.012 0 0 0 102.27 4.201 A 31.005 31.005 0 0 0 100.659 4.239 Q 98.955 4.328 97.86 4.621 L 95.97 4.936 L 95.97 31.396 Z" id="1" vector-effect="non-scaling-stroke" fill="#f5f0f0"></path>
</g><g opacity="0.9" class="chr" transform="translate(98.198,98.198)"><path class="band-path" d="M57.12852722340354,-78.63067201343786A1,1,0,0,0,56.8989409809888,-80.03347874009947A98.198,98.198,0,0,0,31.82316198752805,-92.89851217923541A1,1,0,0,0,30.549773904593525,-92.26680073774214L28.09170359873155,-84.8429067404047A1,1,0,0,0,28.71609743619636,-83.58284502979588A88.37819999999999,88.37819999999999,0,0,1,51.14418570059562,-72.07619929118758A1,1,0,0,0,52.5318995421636,-72.30395677784188Z" style="fill: rgb(109, 174, 213);"></path><path class="band-path" d="M30.549773904593533,-92.26680073774216A1,1,0,0,0,29.904994926879144,-93.53362220305237A98.198,98.198,0,0,0,-5.709919139388443,-98.03185210645387A1,1,0,0,0,-6.6494291021892895,-96.96512928169052L-6.114408310281945,-89.16320231045515A1,1,0,0,0,-5.059503032147707,-88.23325713305435A88.37819999999999,88.37819999999999,0,0,1,26.838706732816146,-84.20445389734374A1,1,0,0,0,28.091703598731556,-84.84290674040473Z" style="fill: rgb(195, 219, 238);"></path><path class="band-path" d="M-6.649429102189284,-96.96512928169051A1,1,0,0,0,-7.725761409116336,-97.89361477976695A98.198,98.198,0,0,0,-42.39322947171195,-88.57573764275843A1,1,0,0,0,-42.859040047540184,-87.23275697926407L-39.41055188498894,-80.21390799207201A1,1,0,0,0,-38.08212998074168,-79.75247714880018A88.37819999999999,88.37819999999999,0,0,1,-7.032492566952743,-88.09795845271191A1,1,0,0,0,-6.11440831028194,-89.16320231045513Z" style="fill: rgb(109, 174, 213);"></path><path class="band-path" d="M-42.859040047540226,-87.23275697926407A1,1,0,0,0,-44.206742021288996,-87.68472594393621A98.198,98.198,0,0,0,-51.81859191290707,-83.41271327659591A1,1,0,0,0,-52.13485683306806,-82.02687307825099L-47.94002567386067,-75.42689555874337A1,1,0,0,0,-46.56913564964393,-75.1133932137609A88.37819999999999,88.37819999999999,0,0,1,-39.85709091656733,-78.88040655897055A1,1,0,0,0,-39.410551884988976,-80.213907992072Z" style="fill: grey;"></path><path class="band-path" d="M-52.1348568330681,-82.02687307825096A1,1,0,0,0,-53.523877506085476,-82.32886335127891A98.198,98.198,0,0,0,-59.85136184080079,-77.85025170030944A1,1,0,0,0,-60.02834102730875,-76.43984221274347L-55.19839095795005,-70.28940368855959A1,1,0,0,0,-53.80313217498385,-70.11368770362328A88.37819999999999,88.37819999999999,0,0,1,-48.23817031555997,-74.05258374862439A1,1,0,0,0,-47.9400256738607,-75.42689555874334Z" style="fill: grey;"></path><path class="band-path" d="M-60.028341027308784,-76.43984221274346A1,1,0,0,0,-61.44049667891499,-76.60230134825086A98.198,98.198,0,0,0,-74.0656156380991,-64.47582325297886A1,1,0,0,0,-73.96016326203645,-63.05827030812781L-68.00924258750472,-57.98452860818938A1,1,0,0,0,-66.60679092166613,-58.08822288861531A88.37819999999999,88.37819999999999,0,0,1,-55.3584852162794,-68.8922662553568A1,1,0,0,0,-55.19839095795008,-70.28940368855959Z" style="fill: rgb(227, 238, 249);"></path><path class="band-path" d="M-73.9601632620364,-63.058270308127845A1,1,0,0,0,-75.37655625855419,-62.93823933508954A98.198,98.198,0,0,0,-98.11857528791244,3.948719725462627A1,1,0,0,0,-97.06889446795108,4.907232495997505L-89.25861842925858,4.512390867380453A1,1,0,0,0,-88.309881100182,3.474353941629196A88.37819999999999,88.37819999999999,0,0,1,-67.88986359245493,-56.58332489910664A1,1,0,0,0,-68.00924258750467,-57.98452860818943Z" style="fill: rgb(8, 48, 107);"></path><path class="band-path" d="M-97.0688944679511,4.9072324959975A1,1,0,0,0,-98.01655710089929,5.966719206243004A98.198,98.198,0,0,0,-92.93468252280172,31.717376757639528A1,1,0,0,0,-91.65556768928415,32.337410464584984L-84.28085421325166,29.735504843950753A1,1,0,0,0,-83.66687673435645,28.47033496041102A88.37819999999999,88.37819999999999,0,0,1,-88.21003161376169,5.449454829536983A1,1,0,0,0,-89.25861842925859,4.512390867380448Z" style="fill: rgb(227, 238, 249);"></path><path class="band-path" d="M-91.65556768928417,32.33741046458498A1,1,0,0,0,-92.26240869208596,33.62283667887799A98.198,98.198,0,0,0,-68.64490332546957,70.21911742137561A1,1,0,0,0,-67.22362649533224,70.19569249473976L-61.81473539661002,64.54766551229477A1,1,0,0,0,-61.83727713004962,63.14156628071117A88.37819999999999,88.37819999999999,0,0,1,-83.00889408737856,30.335288652497898A1,1,0,0,0,-84.28085421325167,29.735504843950753Z" style="fill: rgb(34, 113, 180);"></path><path class="band-path" d="M-67.22362649533231,70.19569249473969A1,1,0,0,0,-67.18558031799301,71.61665310061974A98.198,98.198,0,0,0,-34.22383403627381,92.04116681060484A1,1,0,0,0,-32.93447749332935,91.44272194243445L-30.284531165796626,84.08513428251091A1,1,0,0,0,-30.87600681226534,82.80928956686529A88.37819999999999,88.37819999999999,0,0,1,-60.40897638207487,64.50939317424958A1,1,0,0,0,-61.81473539661007,64.5476655122947Z" style="fill: rgb(227, 238, 249);"></path><path class="band-path" d="M-32.93447749332936,91.44272194243446A1,1,0,0,0,-32.32279904033181,92.72585327835127A98.198,98.198,0,0,0,-15.344929037618737,96.99165096455697A1,1,0,0,0,-14.199393288039646,96.1500308593376L-13.05689360501129,88.4136876542734A1,1,0,0,0,-13.889009913513602,87.28001855443388A88.37819999999999,88.37819999999999,0,0,1,-29.01538398050088,83.47942098328241A1,1,0,0,0,-30.28453116579664,84.08513428251091Z" style="fill: rgb(109, 174, 213);"></path><path class="band-path" d="M-14.199393288039623,96.15003085933759A1,1,0,0,0,-13.346032136457206,97.28684715938043A98.198,98.198,0,0,0,3.163352753666006,98.14703461315513A1,1,0,0,0,4.130235397967972,97.10505836236015L3.7979118586949507,89.29187253470263A1,1,0,0,0,2.767500896607518,88.33485820460275A88.37819999999999,88.37819999999999,0,0,1,-11.932605522966623,87.56893947441219A1,1,0,0,0,-13.056893605011267,88.41368765427339Z" style="fill: rgb(227, 238, 249);"></path><path class="band-path" d="M4.1302353979679705,97.10505836236017A1,1,0,0,0,5.182104058401303,98.0611696928397A98.198,98.198,0,0,0,30.972607078354006,93.18553972999187A1,1,0,0,0,31.602857653329714,91.91142797358431L29.06005500540726,84.5161276817786A1,1,0,0,0,27.799839284557613,83.89204474199425A88.37819999999999,88.37819999999999,0,0,1,4.743337626211548,88.25081859905757A1,1,0,0,0,3.797911858694949,89.29187253470265Z" style="fill: rgb(109, 174, 213);"></path><path class="band-path" d="M31.602857653329664,91.91142797358435A1,1,0,0,0,32.88338616927802,92.52853677672708A98.198,98.198,0,0,0,75.0148729175237,63.368888621844775A1,1,0,0,0,74.88838243938582,61.95305787136165L68.86277617129457,56.96824284829385A1,1,0,0,0,67.46201892822968,57.092751180576144A88.37819999999999,88.37819999999999,0,0,1,29.669999071526586,83.24900834445783A1,1,0,0,0,29.060055005407214,84.51612768177861Z" style="fill: rgb(227, 238, 249);"></path></g></svg>